<?xml version="1.0" standalone="yes"?>

<svg version="1.1" viewBox="0.0 0.0 1375.4304461942256 444.63254593175856" fill="none" stroke="none" stroke-linecap="square" stroke-miterlimit="10" xmlns="http://www.w3.org/2000/svg" xmlns:xlink="http://www.w3.org/1999/xlink"><clipPath id="p.0"><path d="m0 0l1375.4304 0l0 444.63254l-1375.4304 0l0 -444.63254z" clip-rule="nonzero"></path></clipPath><g clip-path="url(#p.0)"><path fill="#000000" fill-opacity="0.0" d="m0 0l1375.4304 0l0 444.63254l-1375.4304 0z" fill-rule="evenodd"></path><path fill="#000000" d="m85.57218 342.32285l-49.167984 -194.16798l140.83466 37.501312l57.498688 229.99998l-149.16534 -73.33331z" fill-rule="evenodd"></path><path stroke="#000000" stroke-width="4.167979002624672" stroke-linejoin="round" stroke-linecap="round" d="m85.57218 342.32285l-49.167984 -194.16798l140.83466 37.501312l57.498688 229.99998l-149.16534 -73.33331z" fill-rule="evenodd"></path><path fill="#ffffff" d="m234.73753 413.15485l123.33333 -99.165344l-39.165344 -225.0l-140.83466 93.33333l56.66667 230.83202z" fill-rule="evenodd"></path><path stroke="#000000" stroke-width="10.0" stroke-linejoin="round" stroke-linecap="round" d="m234.73753 413.15485l123.33333 -99.165344l-39.165344 -225.0l-140.83466 93.33333l56.66667 230.83202z" fill-rule="evenodd"></path><path fill="#ffffff" d="m38.070866 148.15486l145.0 -81.66667l135.83466 22.501312l-140.0 95.832016l-140.83466 -36.666656z" fill-rule="evenodd"></path><path stroke="#000000" stroke-width="10.0" stroke-linejoin="round" stroke-linecap="round" d="m38.070866 148.15486l145.0 -81.66667l135.83466 22.501312l-140.0 95.832016l-140.83466 -36.666656z" fill-rule="evenodd"></path><path fill="#000000" d="m157.23885 32.322834c-49.167976 8.333332 -87.50131 27.498688 -85.0 43.333332c0 0.8320236 0.8320236 2.4986877 1.6666641 3.3333359l8.333336 40.0c0 1.6666641 8.333336 13.333328 9.165352 14.1653595c15.834648 10.0 37.50132 14.167969 86.666664 5.0c49.167984 -8.3333435 83.33334 -25.832024 80.834656 -41.66667c-0.83465576 -1.6666641 1.6666565 -8.333336 0 -10.0l-6.6666718 -40.0c0 -0.8320236 0 -1.6666679 -0.8346405 -1.6666679c0 -0.8320198 0 -0.8320198 0 -1.6666679l0 -0.8320198l-0.83203125 0c-6.6666565 -13.333332 -46.666656 -18.333332 -93.33333 -10.0z" fill-rule="evenodd"></path><path stroke="#000000" stroke-width="3.3333333333333335" stroke-linejoin="round" stroke-linecap="round" d="m157.23885 32.322834c-49.167976 8.333332 -87.50131 27.498688 -85.0 43.333332c0 0.8320236 0.8320236 2.4986877 1.6666641 3.3333359l8.333336 40.0c0 1.6666641 8.333336 13.333328 9.165352 14.1653595c15.834648 10.0 37.50132 14.167969 86.666664 5.0c49.167984 -8.3333435 83.33334 -25.832024 80.834656 -41.66667c-0.83465576 -1.6666641 1.6666565 -8.333336 0 -10.0l-6.6666718 -40.0c0 -0.8320236 0 -1.6666679 -0.8346405 -1.6666679c0 -0.8320198 0 -0.8320198 0 -1.6666679l0 -0.8320198l-0.83203125 0c-6.6666565 -13.333332 -46.666656 -18.333332 -93.33333 -10.0z" fill-rule="evenodd"></path><path fill="#ffffff" d="m238.90552 45.656166c1.6666565 11.666668 -30.834656 27.498688 -72.50131 35.0c-41.66667 6.6666718 -77.498695 3.3333359 -80.00001 -9.167976c-1.6666641 -11.666668 30.834648 -27.498688 72.50132 -34.165356c41.666656 -7.5013123 77.49869 -3.333332 80.0 8.333332z" fill-rule="evenodd"></path><path fill="#ffffff" d="m248.90552 61.48819l5.832016 33.333336c0 0 -0.832016 11.666664 -44.16536 30.0c-40.83464 18.333336 -6.6666565 -43.333336 -8.333328 -41.66667c0 0 20.832016 -2.4986877 46.66667 -21.666664z" fill-rule="evenodd"></path><path stroke="#000000" stroke-width="4.167979002624672" stroke-miterlimit="317.5" stroke-linecap="butt" d="m248.90552 61.48819l5.832016 33.333336c0 0 -0.832016 11.666664 -44.16536 30.0c-40.83464 18.333336 -6.6666565 -43.333336 -8.333328 -41.66667c0 0 20.832016 -2.4986877 46.66667 -21.666664z" fill-rule="evenodd"></path><path fill="#000000" fill-opacity="0.0" d="m422.2126 27.548557l1016.441 0l0 281.7323l-1016.441 0z" fill-rule="evenodd"></path><path fill="#208072" d="m657.25946 198.83606q0 12.734375 -3.15625 22.75q-3.140625 10.0 -8.515625 17.65625q-5.359375 7.65625 -12.375 13.09375q-7.0 5.4375 -14.65625 8.875q-7.65625 3.4375 -15.453125 5.015625q-7.796875 1.5625 -14.65625 1.5625l-84.125 0l0 -37.203125l84.125 0q7.15625 -0.5625 12.9375 -2.921875q5.796875 -2.359375 9.9375 -6.359375q4.15625 -4.015625 6.4375 -9.671875q2.296875 -5.65625 2.296875 -12.796875l0 -16.890625q-0.71875 -7.0 -3.015625 -12.859375q-2.28125 -5.875 -6.21875 -10.015625q-3.921875 -4.15625 -9.5 -6.515625q-5.578125 -2.359375 -12.875 -2.359375l-83.84375 0q-7.4375 0 -11.296875 3.859375q-3.859375 3.859375 -3.859375 11.15625l0 152.9375l-37.203125 0l0 -152.9375q0 -14.3125 5.21875 -24.328125q5.21875 -10.015625 13.015625 -16.15625q7.796875 -6.15625 16.953125 -8.9375q9.15625 -2.796875 16.890625 -2.796875l84.125 0q12.578125 0 22.59375 3.21875q10.015625 3.21875 17.671875 8.59375q7.65625 5.359375 13.015625 12.375q5.375 7.0 8.875 14.65625q3.5 7.65625 5.078125 15.453125q1.578125 7.796875 1.578125 14.65625l0 16.890625zm201.70154 35.46875l-117.609375 0l0 -37.484375l117.609375 0l0 37.484375zm16.59375 -84.109375l-149.07812 0l0 167.95312l-37.1875 0l0 -186.42188q0 -3.859375 1.421875 -7.28125q1.4375 -3.4375 3.9375 -6.015625q2.5 -2.578125 5.9375 -4.0q3.4375 -1.4375 7.4375 -1.4375l167.53125 0l0 37.203125zm212.55865 167.95312l-37.484375 0l0 -83.84375l-132.20312 0q-4.0 0 -7.4375 -1.5q-3.4375 -1.5 -5.9375 -4.0q-2.5 -2.5 -3.9375 -5.9375q-1.421875 -3.4375 -1.421875 -7.296875l0 -102.578125l37.203125 0l0 83.828125l113.734375 0l0 -83.828125l37.484375 0l0 205.15625zm217.1366 -52.21875q0 11.15625 -3.859375 20.75q-3.859375 9.578125 -10.8125 16.59375q-6.9375 7.0 -16.515625 10.9375q-9.578125 3.9375 -20.890625 3.9375l-136.34375 0l0 -37.203125l136.34375 0q6.875 0 10.734375 -3.921875q3.859375 -3.9375 3.859375 -11.09375l0 -152.9375l37.484375 0l0 152.9375z" fill-rule="nonzero"></path></g></svg>

